{
  "accessors": [
    {
      "bufferView": 2,
      "componentType": 5126,
      "count": 6065,
      "max": [
        6173.00244140625,
        2707.708251953125,
        1966.493408203125
      ],
      "min": [
        -6173.00244140625,
        -2348.15576171875,
        111.23431396484375
      ],
      "type": "VEC3"
    },
    {
      "bufferView": 2,
      "byteOffset": 72780,
      "componentType": 5126,
      "count": 6065,
      "max": [
        1.0,
        1.0,
        1.0
      ],
      "min": [
        -1.0,
        -1.0,
        -1.0
      ],
      "type": "VEC3"
    },
    {
      "bufferView": 3,
      "componentType": 5126,
      "count": 6065,
      "max": [
        1.0,
        1.0,
        0.9472959637641907,
        1.0
      ],
      "min": [
        -1.0,
        -1.0,
        -0.9473876953125,
        -1.0
      ],
      "type": "VEC4"
    },
    {
      "bufferView": 1,
      "componentType": 5126,
      "count": 6065,
      "max": [
        0.9994999766349792,
        0.9890750050544739
      ],
      "min": [
        0.0005000000237487257,
        0.0005000000237487257
      ],
      "type": "VEC2"
    },
    {
      "bufferView": 0,
      "componentType": 5125,
      "count": 9750,
      "type": "SCALAR"
    },
    {
      "bufferView": 2,
      "byteOffset": 145560,
      "componentType": 5126,
      "count": 3082,
      "max": [
        5598.35498046875,
        1940.49267578125,
        1291.30029296875
      ],
      "min": [
        -5598.35498046875,
        -77.44721221923828,
        876.63525390625
      ],
      "type": "VEC3"
    },
    {
      "bufferView": 2,
      "byteOffset": 182544,
      "componentType": 5126,
      "count": 3082,
      "max": [
        0.9964353442192078,
        0.9948676228523254,
        1.0
      ],
      "min": [
        -0.9964353442192078,
        -0.9948657751083374,
        -1.0
      ],
      "type": "VEC3"
    },
    {
      "bufferView": 3,
      "byteOffset": 97040,
      "componentType": 5126,
      "count": 3082,
      "max": [
        1.0,
        0.9999998807907104,
        0.7908287048339844,
        1.0
      ],
      "min": [
        -0.9976567625999451,
        -0.9999999403953552,
        -0.7912225723266602,
        1.0
      ],
      "type": "VEC4"
    },
    {
      "bufferView": 1,
      "byteOffset": 48520,
      "componentType": 5126,
      "count": 3082,
      "max": [
        0.9661139845848083,
        0.9719550013542175
      ],
      "min": [
        0.019419999793171883,
        0.2228109985589981
      ],
      "type": "VEC2"
    },
    {
      "bufferView": 0,
      "byteOffset": 39000,
      "componentType": 5125,
      "count": 6708,
      "type": "SCALAR"
    },
    {
      "bufferView": 2,
      "byteOffset": 219528,
      "componentType": 5126,
      "count": 2293,
      "max": [
        5385.033203125,
        1968.843017578125,
        1319.599365234375
      ],
      "min": [
        -5385.033203125,
        116.73707580566406,
        946.7818603515625
      ],
      "type": "VEC3"
    },
    {
      "bufferView": 2,
      "byteOffset": 247044,
      "componentType": 5126,
      "count": 2293,
      "max": [
        0.9827194809913635,
        0.9765956401824951,
        0.9990102648735046
      ],
      "min": [
        -0.9827194809913635,
        -0.976597785949707,
        -0.9990094900131226
      ],
      "type": "VEC3"
    },
    {
      "bufferView": 3,
      "byteOffset": 146352,
      "componentType": 5126,
      "count": 2293,
      "max": [
        0.9990558624267578,
        0.9827340245246887,
        0.7554638385772705,
        1.0
      ],
      "min": [
        -0.9765956401824951,
        -0.9827340841293335,
        -0.7554602026939392,
        -1.0
      ],
      "type": "VEC4"
    },
    {
      "bufferView": 1,
      "byteOffset": 73176,
      "componentType": 5126,
      "count": 2293,
      "max": [
        0.9991310238838196,
        0.9989460110664368
      ],
      "min": [
        0.08091100305318832,
        0.014689999632537365
      ],
      "type": "VEC2"
    },
    {
      "bufferView": 0,
      "byteOffset": 65832,
      "componentType": 5125,
      "count": 2940,
      "type": "SCALAR"
    },
    {
      "bufferView": 2,
      "byteOffset": 274560,
      "componentType": 5126,
      "count": 17606,
      "max": [
        1433.010009765625,
        2003.89404296875,
        1297.62109375
      ],
      "min": [
        -1433.010009765625,
        -3042.345947265625,
        155.9820556640625
      ],
      "type": "VEC3"
    },
    {
      "bufferView": 2,
      "byteOffset": 485832,
      "componentType": 5126,
      "count": 17606,
      "max": [
        1.0,
        1.0,
        1.0
      ],
      "min": [
        -1.0,
        -1.0,
        -1.0
      ],
      "type": "VEC3"
    },
    {
      "bufferView": 3,
      "byteOffset": 183040,
      "componentType": 5126,
      "count": 17606,
      "max": [
        1.0,
        1.0,
        0.7440663576126099,
        1.0
      ],
      "min": [
        -1.0,
        -1.0,
        -0.7440663576126099,
        1.0
      ],
      "type": "VEC4"
    },
    {
      "bufferView": 1,
      "byteOffset": 91520,
      "componentType": 5126,
      "count": 17606,
      "max": [
        0.9290379881858826,
        0.9873499870300293
      ],
      "min": [
        0.0005000000237487257,
        0.09037099778652191
      ],
      "type": "VEC2"
    },
    {
      "bufferView": 0,
      "byteOffset": 77592,
      "componentType": 5125,
      "count": 31860,
      "type": "SCALAR"
    },
    {
      "bufferView": 2,
      "byteOffset": 697104,
      "componentType": 5126,
      "count": 2424,
      "max": [
        1489.8621826171875,
        1712.9954833984375,
        1312.9150390625
      ],
      "min": [
        -1489.8621826171875,
        -1953.8143310546875,
        134.5611572265625
      ],
      "type": "VEC3"
    },
    {
      "bufferView": 2,
      "byteOffset": 726192,
      "componentType": 5126,
      "count": 2424,
      "max": [
        1.0,
        0.999995231628418,
        1.0
      ],
      "min": [
        -1.0,
        -1.0,
        -1.0
      ],
      "type": "VEC3"
    },
    {
      "bufferView": 3,
      "byteOffset": 464736,
      "componentType": 5126,
      "count": 2424,
      "max": [
        1.0,
        1.0,
        0.7071073055267334,
        1.0
      ],
      "min": [
        -1.0,
        -1.0,
        -0.7071073055267334,
        1.0
      ],
      "type": "VEC4"
    },
    {
      "bufferView": 1,
      "byteOffset": 232368,
      "componentType": 5126,
      "count": 2424,
      "max": [
        0.9664589762687683,
        0.910938024520874
      ],
      "min": [
        0.0005000000237487257,
        0.08564099669456482
      ],
      "type": "VEC2"
    },
    {
      "bufferView": 0,
      "byteOffset": 205032,
      "componentType": 5125,
      "count": 5610,
      "type": "SCALAR"
    },
    {
      "bufferView": 2,
      "byteOffset": 755280,
      "componentType": 5126,
      "count": 1661,
      "max": [
        1533.45751953125,
        1753.1658935546875,
        1300.560791015625
      ],
      "min": [
        -1533.45751953125,
        -1942.0814208984375,
        119.28717041015625
      ],
      "type": "VEC3"
    },
    {
      "bufferView": 2,
      "byteOffset": 775212,
      "componentType": 5126,
      "count": 1661,
      "max": [
        1.0,
        1.0,
        1.0
      ],
      "min": [
        -1.0,
        -1.0,
        -1.0
      ],
      "type": "VEC3"
    },
    {
      "bufferView": 3,
      "byteOffset": 503520,
      "componentType": 5126,
      "count": 1661,
      "max": [
        1.0,
        1.0,
        0.7071087956428528,
        1.0
      ],
      "min": [
        -1.0,
        -1.0,
        -0.7071087956428528,
        1.0
      ],
      "type": "VEC4"
    },
    {
      "bufferView": 1,
      "byteOffset": 251760,
      "componentType": 5126,
      "count": 1661,
      "max": [
        0.9685630202293396,
        0.9031320214271545
      ],
      "min": [
        0.028880000114440918,
        0.12348099797964096
      ],
      "type": "VEC2"
    },
    {
      "bufferView": 0,
      "byteOffset": 227472,
      "componentType": 5125,
      "count": 3582,
      "type": "SCALAR"
    },
    {
      "bufferView": 2,
      "byteOffset": 795144,
      "componentType": 5126,
      "count": 96,
      "max": [
        3360.486572265625,
        538.1990356445313,
        1314.3037109375
      ],
      "min": [
        -3360.486572265625,
        -500.84075927734375,
        719.871337890625
      ],
      "type": "VEC3"
    },
    {
      "bufferView": 2,
      "byteOffset": 796296,
      "componentType": 5126,
      "count": 96,
      "max": [
        0.87799471616745,
        -0.024466006085276604,
        0.7149061560630798
      ],
      "min": [
        -0.87799471616745,
        -1.0,
        0.0
      ],
      "type": "VEC3"
    },
    {
      "bufferView": 3,
      "byteOffset": 530096,
      "componentType": 5126,
      "count": 96,
      "max": [
        1.0,
        0.999609112739563,
        0.14808087050914764,
        1.0
      ],
      "min": [
        0.027957996353507042,
        -0.999609112739563,
        -0.14808088541030884,
        1.0
      ],
      "type": "VEC4"
    },
    {
      "bufferView": 1,
      "byteOffset": 265048,
      "componentType": 5126,
      "count": 96,
      "max": [
        0.7591469883918762,
        0.8203830122947693
      ],
      "min": [
        0.31268200278282166,
        0.2718929946422577
      ],
      "type": "VEC2"
    },
    {
      "bufferView": 0,
      "byteOffset": 241800,
      "componentType": 5125,
      "count": 216,
      "type": "SCALAR"
    },
    {
      "bufferView": 2,
      "byteOffset": 797448,
      "componentType": 5126,
      "count": 1994,
      "max": [
        863.2698364257813,
        2223.069580078125,
        1107.169921875
      ],
      "min": [
        -863.2698364257813,
        48.76640319824219,
        253.1605224609375
      ],
      "type": "VEC3"
    },
    {
      "bufferView": 2,
      "byteOffset": 821376,
      "componentType": 5126,
      "count": 1994,
      "max": [
        1.0,
        1.0,
        1.0
      ],
      "min": [
        -1.0,
        -0.0028550014831125736,
        -1.0
      ],
      "type": "VEC3"
    },
    {
      "bufferView": 3,
      "byteOffset": 531632,
      "componentType": 5126,
      "count": 1994,
      "max": [
        1.0,
        1.0,
        0.8097198009490967,
        1.0
      ],
      "min": [
        -1.0,
        -1.0,
        -0.8097198009490967,
        1.0
      ],
      "type": "VEC4"
    },
    {
      "bufferView": 1,
      "byteOffset": 265816,
      "componentType": 5126,
      "count": 1994,
      "max": [
        0.8987439870834351,
        0.6913549900054932
      ],
      "min": [
        0.024150000885128975,
        0.3978230059146881
      ],
      "type": "VEC2"
    },
    {
      "bufferView": 0,
      "byteOffset": 242664,
      "componentType": 5125,
      "count": 3240,
      "type": "SCALAR"
    }
  ],
  "asset": {
    "extras": {
      "author": "Shaz (https://sketchfab.com/shaz13)",
      "license": "CC-BY-4.0 (http://creativecommons.org/licenses/by/4.0/)",
      "source": "https://sketchfab.com/3d-models/flying-fox-batwing-low-poly-03e53e24c16f4fbb9be96f6c52070ed0",
      "title": "Flying Fox / Batwing Low Poly"
    },
    "generator": "Sketchfab-15.12.0",
    "version": "2.0"
  },
  "bufferViews": [
    {
      "buffer": 0,
      "byteLength": 255624,
      "name": "floatBufferViews",
      "target": 34963
    },
    {
      "buffer": 0,
      "byteLength": 281768,
      "byteOffset": 255624,
      "byteStride": 8,
      "name": "floatBufferViews",
      "target": 34962
    },
    {
      "buffer": 0,
      "byteLength": 845304,
      "byteOffset": 537392,
      "byteStride": 12,
      "name": "floatBufferViews",
      "target": 34962
    },
    {
      "buffer": 0,
      "byteLength": 563536,
      "byteOffset": 1382696,
      "byteStride": 16,
      "name": "floatBufferViews",
      "target": 34962
    }
  ],
  "buffers": [
    {
      "byteLength": 1946232,
      "uri": "scene.bin"
    }
  ],
  "images": [
    {
      "uri": "textures/Body_baseColor.jpeg"
    },
    {
      "uri": "textures/Body_metallicRoughness.png"
    },
    {
      "uri": "textures/Body_normal.png"
    },
    {
      "uri": "textures/missile_baseColor.jpeg"
    },
    {
      "uri": "textures/missile_metallicRoughness.png"
    },
    {
      "uri": "textures/missile_normal.png"
    },
    {
      "uri": "textures/missile_0_baseColor.jpeg"
    },
    {
      "uri": "textures/missile_0_metallicRoughness.png"
    },
    {
      "uri": "textures/material_baseColor.jpeg"
    },
    {
      "uri": "textures/material_metallicRoughness.png"
    },
    {
      "uri": "textures/material_normal.png"
    },
    {
      "uri": "textures/gun_0_baseColor.jpeg"
    },
    {
      "uri": "textures/gun_0_metallicRoughness.png"
    },
    {
      "uri": "textures/gun_0_normal.png"
    },
    {
      "uri": "textures/gun_1_baseColor.jpeg"
    },
    {
      "uri": "textures/gun_1_metallicRoughness.png"
    },
    {
      "uri": "textures/gun_1_normal.png"
    },
    {
      "uri": "textures/windshield_baseColor.jpeg"
    },
    {
      "uri": "textures/windshield_metallicRoughness.png"
    },
    {
      "uri": "textures/windshield_normal.png"
    },
    {
      "uri": "textures/engine_baseColor.jpeg"
    },
    {
      "uri": "textures/engine_metallicRoughness.png"
    },
    {
      "uri": "textures/engine_normal.png"
    }
  ],
  "materials": [
    {
      "doubleSided": true,
      "name": "Body",
      "normalTexture": {
        "index": 2,
        "scale": 0.14544856432982628
      },
      "occlusionTexture": {
        "index": 1
      },
      "pbrMetallicRoughness": {
        "baseColorTexture": {
          "index": 0
        },
        "metallicRoughnessTexture": {
          "index": 1
        }
      }
    },
    {
      "doubleSided": true,
      "name": "missile",
      "normalTexture": {
        "index": 5
      },
      "occlusionTexture": {
        "index": 4
      },
      "pbrMetallicRoughness": {
        "baseColorTexture": {
          "index": 3
        },
        "metallicRoughnessTexture": {
          "index": 4
        }
      }
    },
    {
      "doubleSided": true,
      "name": "missile_0",
      "normalTexture": {
        "index": 5
      },
      "occlusionTexture": {
        "index": 7
      },
      "pbrMetallicRoughness": {
        "baseColorTexture": {
          "index": 6
        },
        "metallicRoughnessTexture": {
          "index": 7
        }
      }
    },
    {
      "doubleSided": true,
      "name": "material",
      "normalTexture": {
        "index": 10
      },
      "occlusionTexture": {
        "index": 9
      },
      "pbrMetallicRoughness": {
        "baseColorTexture": {
          "index": 8
        },
        "metallicRoughnessTexture": {
          "index": 9
        }
      }
    },
    {
      "doubleSided": true,
      "name": "gun_0",
      "normalTexture": {
        "index": 13
      },
      "occlusionTexture": {
        "index": 12
      },
      "pbrMetallicRoughness": {
        "baseColorTexture": {
          "index": 11
        },
        "metallicRoughnessTexture": {
          "index": 12
        }
      }
    },
    {
      "doubleSided": true,
      "name": "gun_1",
      "normalTexture": {
        "index": 16
      },
      "occlusionTexture": {
        "index": 15
      },
      "pbrMetallicRoughness": {
        "baseColorTexture": {
          "index": 14
        },
        "metallicRoughnessTexture": {
          "index": 15
        }
      }
    },
    {
      "doubleSided": true,
      "name": "windshield",
      "normalTexture": {
        "index": 19
      },
      "occlusionTexture": {
        "index": 18
      },
      "pbrMetallicRoughness": {
        "baseColorTexture": {
          "index": 17
        },
        "metallicFactor": 0.0,
        "metallicRoughnessTexture": {
          "index": 18
        }
      }
    },
    {
      "doubleSided": true,
      "name": "engine",
      "normalTexture": {
        "index": 22
      },
      "occlusionTexture": {
        "index": 21
      },
      "pbrMetallicRoughness": {
        "baseColorFactor": [
          0.5,
          0.5,
          0.5,
          1.0
        ],
        "baseColorTexture": {
          "index": 20
        },
        "metallicRoughnessTexture": {
          "index": 21
        }
      }
    }
  ],
  "meshes": [
    {
      "name": "defaultMaterial",
      "primitives": [
        {
          "attributes": {
            "NORMAL": 1,
            "POSITION": 0,
            "TANGENT": 2,
            "TEXCOORD_0": 3
          },
          "indices": 4,
          "material": 0,
          "mode": 4
        }
      ]
    },
    {
      "name": "defaultMaterial",
      "primitives": [
        {
          "attributes": {
            "NORMAL": 6,
            "POSITION": 5,
            "TANGENT": 7,
            "TEXCOORD_0": 8
          },
          "indices": 9,
          "material": 1,
          "mode": 4
        }
      ]
    },
    {
      "name": "defaultMaterial",
      "primitives": [
        {
          "attributes": {
            "NORMAL": 11,
            "POSITION": 10,
            "TANGENT": 12,
            "TEXCOORD_0": 13
          },
          "indices": 14,
          "material": 2,
          "mode": 4
        }
      ]
    },
    {
      "name": "defaultMaterial",
      "primitives": [
        {
          "attributes": {
            "NORMAL": 16,
            "POSITION": 15,
            "TANGENT": 17,
            "TEXCOORD_0": 18
          },
          "indices": 19,
          "material": 3,
          "mode": 4
        }
      ]
    },
    {
      "name": "defaultMaterial",
      "primitives": [
        {
          "attributes": {
            "NORMAL": 21,
            "POSITION": 20,
            "TANGENT": 22,
            "TEXCOORD_0": 23
          },
          "indices": 24,
          "material": 4,
          "mode": 4
        }
      ]
    },
    {
      "name": "defaultMaterial",
      "primitives": [
        {
          "attributes": {
            "NORMAL": 26,
            "POSITION": 25,
            "TANGENT": 27,
            "TEXCOORD_0": 28
          },
          "indices": 29,
          "material": 5,
          "mode": 4
        }
      ]
    },
    {
      "name": "defaultMaterial",
      "primitives": [
        {
          "attributes": {
            "NORMAL": 31,
            "POSITION": 30,
            "TANGENT": 32,
            "TEXCOORD_0": 33
          },
          "indices": 34,
          "material": 6,
          "mode": 4
        }
      ]
    },
    {
      "name": "defaultMaterial",
      "primitives": [
        {
          "attributes": {
            "NORMAL": 36,
            "POSITION": 35,
            "TANGENT": 37,
            "TEXCOORD_0": 38
          },
          "indices": 39,
          "material": 7,
          "mode": 4
        }
      ]
    }
  ],
  "nodes": [
    {
      "children": [
        1
      ],
      "matrix": [
        0.0016004388453438878,
        0.0,
        0.0,
        0.0,
        0.0,
        3.5536881112105685e-19,
        -0.0016004388453438878,
        0.0,
        0.0,
        0.0016004388453438878,
        3.5536881112105685e-19,
        0.0,
        0.0,
        0.0,
        0.0,
        1.0
      ],
      "name": "Sketchfab_model"
    },
    {
      "children": [
        2
      ],
      "matrix": [
        1.0,
        0.0,
        0.0,
        0.0,
        0.0,
        -4.371139006309477e-08,
        0.999999999999999,
        0.0,
        0.0,
        -0.999999999999999,
        -4.371139006309477e-08,
        0.0,
        0.0,
        0.0,
        0.0,
        1.0
      ],
      "name": "Collada visual scene group"
    },
    {
      "children": [
        3,
        4,
        5,
        6,
        7,
        8,
        9,
        10
      ],
      "matrix": [
        1.0,
        0.0,
        0.0,
        0.0,
        0.0,
        0.0,
        -1.0,
        0.0,
        0.0,
        1.0,
        0.0,
        0.0,
        0.0,
        580.503357,
        -535.796814,
        1.0
      ],
      "name": "Body001"
    },
    {
      "mesh": 0,
      "name": "defaultMaterial"
    },
    {
      "mesh": 1,
      "name": "defaultMaterial"
    },
    {
      "mesh": 2,
      "name": "defaultMaterial"
    },
    {
      "mesh": 3,
      "name": "defaultMaterial"
    },
    {
      "mesh": 4,
      "name": "defaultMaterial"
    },
    {
      "mesh": 5,
      "name": "defaultMaterial"
    },
    {
      "mesh": 6,
      "name": "defaultMaterial"
    },
    {
      "mesh": 7,
      "name": "defaultMaterial"
    }
  ],
  "samplers": [
    {
      "magFilter": 9729,
      "minFilter": 9987,
      "wrapS": 10497,
      "wrapT": 10497
    }
  ],
  "scene": 0,
  "scenes": [
    {
      "name": "Sketchfab_Scene",
      "nodes": [
        0
      ]
    }
  ],
  "textures": [
    {
      "sampler": 0,
      "source": 0
    },
    {
      "sampler": 0,
      "source": 1
    },
    {
      "sampler": 0,
      "source": 2
    },
    {
      "sampler": 0,
      "source": 3
    },
    {
      "sampler": 0,
      "source": 4
    },
    {
      "sampler": 0,
      "source": 5
    },
    {
      "sampler": 0,
      "source": 6
    },
    {
      "sampler": 0,
      "source": 7
    },
    {
      "sampler": 0,
      "source": 8
    },
    {
      "sampler": 0,
      "source": 9
    },
    {
      "sampler": 0,
      "source": 10
    },
    {
      "sampler": 0,
      "source": 11
    },
    {
      "sampler": 0,
      "source": 12
    },
    {
      "sampler": 0,
      "source": 13
    },
    {
      "sampler": 0,
      "source": 14
    },
    {
      "sampler": 0,
      "source": 15
    },
    {
      "sampler": 0,
      "source": 16
    },
    {
      "sampler": 0,
      "source": 17
    },
    {
      "sampler": 0,
      "source": 18
    },
    {
      "sampler": 0,
      "source": 19
    },
    {
      "sampler": 0,
      "source": 20
    },
    {
      "sampler": 0,
      "source": 21
    },
    {
      "sampler": 0,
      "source": 22
    }
  ]
}
